<svg xmlns="http://www.w3.org/2000/svg" viewBox="0 5.449999809265137 118.5 47.5" data-asc="1.05"><g fill="#000000"><g fill="#000000" transform="translate(0, 0)"><path d="M23.00 45.40L8.45 45.40L5.95 52.50L0 52.50L12.45 17.70L19.05 17.70L31.50 52.50L25.50 52.50L23.00 45.40M21.40 40.75L15.75 24.60L10.05 40.75L21.40 40.75M20.90 10.30L9.85 15.75L9.85 11.55L20.90 5.45L20.90 10.30ZM47.55 47.40L55.35 24.95L61.40 24.95L50.90 52.50L44.10 52.50L33.65 24.95L39.75 24.95L47.55 47.40ZM68.60 21.30Q67.05 21.30 66 20.25Q64.95 19.20 64.95 17.65Q64.95 16.10 66 15.05Q67.05 14 68.60 14Q70.10 14 71.15 15.05Q72.20 16.10 72.20 17.65Q72.20 19.20 71.15 20.25Q70.10 21.30 68.60 21.30M71.40 24.95L71.40 52.50L65.70 52.50L65.70 24.95L71.40 24.95ZM84.60 15.50L84.60 52.50L78.90 52.50L78.90 15.50L84.60 15.50ZM90.20 38.60Q90.20 34.45 91.93 31.25Q93.65 28.05 96.63 26.27Q99.60 24.50 103.20 24.50Q106.45 24.50 108.88 25.77Q111.30 27.05 112.75 28.95L112.75 24.95L118.50 24.95L118.50 52.50L112.75 52.50L112.75 48.40Q111.30 50.35 108.80 51.65Q106.30 52.95 103.10 52.95Q99.55 52.95 96.60 51.13Q93.65 49.30 91.93 46.02Q90.20 42.75 90.20 38.60M112.75 38.70Q112.75 35.85 111.58 33.75Q110.40 31.65 108.50 30.55Q106.60 29.45 104.40 29.45Q102.20 29.45 100.30 30.52Q98.40 31.60 97.23 33.67Q96.05 35.75 96.05 38.60Q96.05 41.45 97.23 43.60Q98.40 45.75 100.33 46.88Q102.25 48 104.40 48Q106.60 48 108.50 46.90Q110.40 45.80 111.58 43.67Q112.75 41.55 112.75 38.70Z"/></g></g></svg>