<svg xmlns="http://www.w3.org/2000/svg" viewBox="0 14 194.9499969482422 38.95000076293945" data-asc="1.05"><g fill="#000000"><g fill="#000000" transform="translate(0, 0)"><path d="M0 35.05Q0 29.95 2.38 25.90Q4.75 21.85 8.83 19.57Q12.90 17.30 17.75 17.30Q23.30 17.30 27.63 20.02Q31.95 22.75 33.90 27.75L27.05 27.75Q25.70 25 23.30 23.65Q20.90 22.30 17.75 22.30Q14.30 22.30 11.60 23.85Q8.90 25.40 7.38 28.30Q5.85 31.20 5.85 35.05Q5.85 38.90 7.38 41.80Q8.90 44.70 11.60 46.27Q14.30 47.85 17.75 47.85Q20.90 47.85 23.30 46.50Q25.70 45.15 27.05 42.40L33.90 42.40Q31.95 47.40 27.63 50.10Q23.30 52.80 17.75 52.80Q12.85 52.80 8.80 50.52Q4.75 48.25 2.38 44.20Q0 40.15 0 35.05ZM54.80 24.50Q57.95 24.50 60.43 25.85Q62.90 27.20 64.33 29.85Q65.75 32.50 65.75 36.25L65.75 52.50L60.10 52.50L60.10 37.10Q60.10 33.40 58.25 31.42Q56.40 29.45 53.20 29.45Q50.00 29.45 48.13 31.42Q46.25 33.40 46.25 37.10L46.25 52.50L40.55 52.50L40.55 15.50L46.25 15.50L46.25 28.15Q47.70 26.40 49.93 25.45Q52.15 24.50 54.80 24.50ZM84.95 52.95Q81.05 52.95 77.90 51.17Q74.75 49.40 72.95 46.17Q71.15 42.95 71.15 38.70Q71.15 34.50 73 31.25Q74.85 28 78.05 26.25Q81.25 24.50 85.20 24.50Q89.15 24.50 92.35 26.25Q95.55 28 97.40 31.25Q99.25 34.50 99.25 38.70Q99.25 42.90 97.35 46.15Q95.45 49.40 92.17 51.17Q88.90 52.95 84.95 52.95M84.95 48Q87.15 48 89.08 46.95Q91 45.90 92.20 43.80Q93.40 41.70 93.40 38.70Q93.40 35.70 92.25 33.63Q91.10 31.55 89.20 30.50Q87.30 29.45 85.10 29.45Q82.90 29.45 81.03 30.50Q79.15 31.55 78.05 33.63Q76.95 35.70 76.95 38.70Q76.95 43.15 79.22 45.58Q81.50 48 84.95 48ZM110.60 28.95Q111.85 26.85 113.93 25.67Q116 24.50 118.85 24.50L118.85 30.40L117.40 30.40Q114.05 30.40 112.33 32.10Q110.60 33.80 110.60 38L110.60 52.50L104.90 52.50L104.90 24.95L110.60 24.95L110.60 28.95ZM136.05 52.95Q132.15 52.95 129 51.17Q125.85 49.40 124.05 46.17Q122.25 42.95 122.25 38.70Q122.25 34.50 124.10 31.25Q125.95 28 129.15 26.25Q132.35 24.50 136.30 24.50Q140.25 24.50 143.45 26.25Q146.65 28 148.50 31.25Q150.35 34.50 150.35 38.70Q150.35 42.90 148.45 46.15Q146.55 49.40 143.28 51.17Q140 52.95 136.05 52.95M136.05 48Q138.25 48 140.18 46.95Q142.10 45.90 143.30 43.80Q144.50 41.70 144.50 38.70Q144.50 35.70 143.35 33.63Q142.20 31.55 140.30 30.50Q138.40 29.45 136.20 29.45Q134 29.45 132.13 30.50Q130.25 31.55 129.15 33.63Q128.05 35.70 128.05 38.70Q128.05 43.15 130.33 45.58Q132.60 48 136.05 48ZM169.90 24.50Q173.15 24.50 175.72 25.85Q178.30 27.20 179.75 29.85Q181.20 32.50 181.20 36.25L181.20 52.50L175.55 52.50L175.55 37.10Q175.55 33.40 173.70 31.42Q171.85 29.45 168.65 29.45Q165.45 29.45 163.57 31.42Q161.70 33.40 161.70 37.10L161.70 52.50L156 52.50L156 24.95L161.70 24.95L161.70 28.10Q163.10 26.40 165.28 25.45Q167.45 24.50 169.90 24.50ZM191.35 21.30Q189.80 21.30 188.75 20.25Q187.70 19.20 187.70 17.65Q187.70 16.10 188.75 15.05Q189.80 14 191.35 14Q192.85 14 193.90 15.05Q194.95 16.10 194.95 17.65Q194.95 19.20 193.90 20.25Q192.85 21.30 191.35 21.30M194.15 24.95L194.15 52.50L188.45 52.50L188.45 24.95L194.15 24.95Z"/></g></g></svg>