<svg xmlns="http://www.w3.org/2000/svg" viewBox="0 15.5 122.69999694824219 37.45000076293945" data-asc="1.05"><g fill="#000000"><g fill="#000000" transform="translate(0, 0)"><path d="M24.30 28.10Q24.30 30.75 23.05 33.10Q21.80 35.45 19.05 36.92Q16.30 38.40 12 38.40L5.70 38.40L5.70 52.50L0 52.50L0 17.75L12 17.75Q16 17.75 18.78 19.13Q21.55 20.50 22.93 22.85Q24.30 25.20 24.30 28.10M12 33.75Q15.25 33.75 16.85 32.27Q18.45 30.80 18.45 28.10Q18.45 22.40 12 22.40L5.70 22.40L5.70 33.75L12 33.75ZM41.70 52.95Q37.80 52.95 34.65 51.17Q31.50 49.40 29.70 46.17Q27.90 42.95 27.90 38.70Q27.90 34.50 29.75 31.25Q31.60 28 34.80 26.25Q38 24.50 41.95 24.50Q45.90 24.50 49.10 26.25Q52.30 28 54.15 31.25Q56 34.50 56 38.70Q56 42.90 54.10 46.15Q52.20 49.40 48.92 51.17Q45.65 52.95 41.70 52.95M41.70 48Q43.90 48 45.83 46.95Q47.75 45.90 48.95 43.80Q50.15 41.70 50.15 38.70Q50.15 35.70 49 33.63Q47.85 31.55 45.95 30.50Q44.05 29.45 41.85 29.45Q39.65 29.45 37.77 30.50Q35.90 31.55 34.80 33.63Q33.70 35.70 33.70 38.70Q33.70 43.15 35.98 45.58Q38.25 48 41.70 48ZM67.35 15.50L67.35 52.50L61.65 52.50L61.65 15.50L67.35 15.50ZM72.95 38.60Q72.95 34.45 74.68 31.25Q76.40 28.05 79.38 26.27Q82.35 24.50 85.95 24.50Q89.20 24.50 91.63 25.77Q94.05 27.05 95.50 28.95L95.50 24.95L101.25 24.95L101.25 52.50L95.50 52.50L95.50 48.40Q94.05 50.35 91.55 51.65Q89.05 52.95 85.85 52.95Q82.30 52.95 79.35 51.13Q76.40 49.30 74.68 46.02Q72.95 42.75 72.95 38.60M95.50 38.70Q95.50 35.85 94.33 33.75Q93.15 31.65 91.25 30.55Q89.35 29.45 87.15 29.45Q84.95 29.45 83.05 30.52Q81.15 31.60 79.98 33.67Q78.80 35.75 78.80 38.60Q78.80 41.45 79.98 43.60Q81.15 45.75 83.08 46.88Q85.00 48 87.15 48Q89.35 48 91.25 46.90Q93.15 45.80 94.33 43.67Q95.50 41.55 95.50 38.70ZM114.45 28.95Q115.70 26.85 117.78 25.67Q119.85 24.50 122.70 24.50L122.70 30.40L121.25 30.40Q117.90 30.40 116.17 32.10Q114.45 33.80 114.45 38L114.45 52.50L108.75 52.50L108.75 24.95L114.45 24.95L114.45 28.95Z"/></g></g></svg>