<svg xmlns="http://www.w3.org/2000/svg" viewBox="0 15.5 152.60000610351562 37.45000076293945" data-asc="1.05"><g fill="#000000"><g fill="#000000" transform="translate(0, 0)"><path d="M12.30 52.85Q8.80 52.85 6 51.63Q3.20 50.40 1.60 48.15Q0 45.90 0 42.90L6.10 42.90Q6.30 45.15 7.88 46.60Q9.45 48.05 12.30 48.05Q15.25 48.05 16.90 46.63Q18.55 45.20 18.55 42.95Q18.55 41.20 17.52 40.10Q16.50 39 14.97 38.40Q13.45 37.80 10.75 37.10Q7.35 36.20 5.22 35.27Q3.10 34.35 1.60 32.40Q0.10 30.45 0.10 27.20Q0.10 24.20 1.60 21.95Q3.10 19.70 5.80 18.50Q8.50 17.30 12.05 17.30Q17.10 17.30 20.33 19.82Q23.55 22.35 23.90 26.75L17.60 26.75Q17.45 24.85 15.80 23.50Q14.15 22.15 11.45 22.15Q9 22.15 7.45 23.40Q5.90 24.65 5.90 27Q5.90 28.60 6.88 29.63Q7.85 30.65 9.35 31.25Q10.85 31.85 13.45 32.55Q16.90 33.50 19.08 34.45Q21.25 35.40 22.77 37.38Q24.30 39.35 24.30 42.65Q24.30 45.30 22.88 47.65Q21.45 50 18.73 51.42Q16 52.85 12.30 52.85ZM43.00 52.95Q39.10 52.95 35.95 51.17Q32.80 49.40 31.00 46.17Q29.20 42.95 29.20 38.70Q29.20 34.50 31.05 31.25Q32.90 28 36.10 26.25Q39.30 24.50 43.25 24.50Q47.20 24.50 50.40 26.25Q53.60 28 55.45 31.25Q57.30 34.50 57.30 38.70Q57.30 42.90 55.40 46.15Q53.50 49.40 50.23 51.17Q46.95 52.95 43.00 52.95M43.00 48Q45.20 48 47.13 46.95Q49.05 45.90 50.25 43.80Q51.45 41.70 51.45 38.70Q51.45 35.70 50.30 33.63Q49.15 31.55 47.25 30.50Q45.35 29.45 43.15 29.45Q40.95 29.45 39.08 30.50Q37.20 31.55 36.10 33.63Q35.00 35.70 35.00 38.70Q35.00 43.15 37.28 45.58Q39.55 48 43.00 48ZM68.65 15.50L68.65 52.50L62.95 52.50L62.95 15.50L68.65 15.50ZM101.40 38.05Q101.40 39.60 101.20 40.85L80.15 40.85Q80.40 44.15 82.60 46.15Q84.80 48.15 88 48.15Q92.60 48.15 94.50 44.30L100.65 44.30Q99.40 48.10 96.13 50.52Q92.85 52.95 88 52.95Q84.05 52.95 80.93 51.17Q77.80 49.40 76.03 46.17Q74.25 42.95 74.25 38.70Q74.25 34.45 75.98 31.22Q77.70 28 80.83 26.25Q83.95 24.50 88 24.50Q91.90 24.50 94.95 26.20Q98 27.90 99.70 30.97Q101.40 34.05 101.40 38.05M95.45 36.25Q95.40 33.10 93.20 31.20Q91 29.30 87.75 29.30Q84.80 29.30 82.70 31.17Q80.60 33.05 80.20 36.25L95.45 36.25ZM112.70 28.95Q113.95 26.85 116.03 25.67Q118.10 24.50 120.95 24.50L120.95 30.40L119.50 30.40Q116.15 30.40 114.42 32.10Q112.70 33.80 112.70 38L112.70 52.50L107 52.50L107 24.95L112.70 24.95L112.70 28.95ZM124.30 38.60Q124.30 34.45 126.03 31.25Q127.75 28.05 130.72 26.27Q133.70 24.50 137.30 24.50Q140.55 24.50 142.97 25.77Q145.40 27.05 146.85 28.95L146.85 24.95L152.60 24.95L152.60 52.50L146.85 52.50L146.85 48.40Q145.40 50.35 142.90 51.65Q140.40 52.95 137.20 52.95Q133.65 52.95 130.70 51.13Q127.75 49.30 126.03 46.02Q124.30 42.75 124.30 38.60M146.85 38.70Q146.85 35.85 145.68 33.75Q144.50 31.65 142.60 30.55Q140.70 29.45 138.50 29.45Q136.30 29.45 134.40 30.52Q132.50 31.60 131.32 33.67Q130.15 35.75 130.15 38.60Q130.15 41.45 131.32 43.60Q132.50 45.75 134.43 46.88Q136.35 48 138.50 48Q140.70 48 142.60 46.90Q144.50 45.80 145.68 43.67Q146.85 41.55 146.85 38.70Z"/></g></g></svg>