<svg xmlns="http://www.w3.org/2000/svg" viewBox="0 14 114.4000015258789 38.95000076293945" data-asc="1.05"><g fill="#000000"><g fill="#000000" transform="translate(0, 0)"><path d="M6.75 47.55L22.90 47.55L22.90 52.50L0 52.50L0 48.05L16.10 22.70L0 22.70L0 17.75L22.90 17.75L22.90 22.20L6.75 47.55ZM54.10 24.95L54.10 52.50L48.40 52.50L48.40 49.25Q47.05 50.95 44.88 51.92Q42.70 52.90 40.25 52.90Q37 52.90 34.43 51.55Q31.85 50.20 30.38 47.55Q28.90 44.90 28.90 41.15L28.90 24.95L34.55 24.95L34.55 40.30Q34.55 44 36.40 45.98Q38.25 47.95 41.45 47.95Q44.65 47.95 46.53 45.98Q48.40 44 48.40 40.30L48.40 24.95L54.10 24.95ZM67.30 15.50L67.30 52.50L61.60 52.50L61.60 15.50L67.30 15.50ZM77.70 21.30Q76.15 21.30 75.10 20.25Q74.05 19.20 74.05 17.65Q74.05 16.10 75.10 15.05Q76.15 14 77.70 14Q79.20 14 80.25 15.05Q81.30 16.10 81.30 17.65Q81.30 19.20 80.25 20.25Q79.20 21.30 77.70 21.30M80.50 24.95L80.50 52.50L74.80 52.50L74.80 24.95L80.50 24.95ZM86.10 38.60Q86.10 34.45 87.83 31.25Q89.55 28.05 92.53 26.27Q95.50 24.50 99.10 24.50Q102.35 24.50 104.78 25.77Q107.20 27.05 108.65 28.95L108.65 24.95L114.40 24.95L114.40 52.50L108.65 52.50L108.65 48.40Q107.20 50.35 104.70 51.65Q102.20 52.95 99.00 52.95Q95.45 52.95 92.50 51.13Q89.55 49.30 87.83 46.02Q86.10 42.75 86.10 38.60M108.65 38.70Q108.65 35.85 107.48 33.75Q106.30 31.65 104.40 30.55Q102.50 29.45 100.30 29.45Q98.10 29.45 96.20 30.52Q94.30 31.60 93.13 33.67Q91.95 35.75 91.95 38.60Q91.95 41.45 93.13 43.60Q94.30 45.75 96.23 46.88Q98.15 48 100.30 48Q102.50 48 104.40 46.90Q106.30 45.80 107.48 43.67Q108.65 41.55 108.65 38.70Z"/></g></g></svg>